<svg id="_x31_" enable-background="new 0 0 24 24" height="512" viewBox="0 0 24 24" width="512"
    xmlns="http://www.w3.org/2000/svg">

    <path
        d="m12 24c-6.617 0-12-5.383-12-12s5.383-12 12-12 12 5.383 12 12-5.383 12-12 12zm0-23c-6.065 0-11 4.935-11 11s4.935 11 11 11 11-4.935 11-11-4.935-11-11-11z" />

    <path
        d="m7.5 19h-1c-.827 0-1.5-.673-1.5-1.5v-7.043c0-.827.673-1.5 1.5-1.5h1c.827 0 1.5.673 1.5 1.5v7.043c0 .827-.673 1.5-1.5 1.5zm-1-9.043c-.276 0-.5.224-.5.5v7.043c0 .276.224.5.5.5h1c.276 0 .5-.224.5-.5v-7.043c0-.276-.224-.5-.5-.5z" />

    <path
        d="m15.579 19h-1.036c-4.362 0-6.272-1.458-6.352-1.52-.218-.17-.256-.484-.085-.702s.485-.256.702-.085c.015.012 1.757 1.307 5.735 1.307h1.036c.864 0 1.595-.619 1.737-1.471l.66-3.957c.085-.512-.058-1.032-.394-1.428-.335-.396-.825-.623-1.343-.623h-3.391c-.185 0-.354-.102-.441-.264s-.078-.36.025-.513c.003-.005.481-.757.481-1.984 0-1.291-.546-1.76-.913-1.76-.163 0-.348 0-.348 1.196 0 2.252-2.798 3.769-2.917 3.833-.242.129-.545.037-.676-.206-.13-.243-.038-.546.205-.676.024-.013 2.388-1.299 2.388-2.95 0-.769 0-2.197 1.348-2.197.662 0 1.913.577 1.913 2.761 0 .731-.139 1.33-.289 1.761h2.614c.813 0 1.581.356 2.106.976.525.621.75 1.437.617 2.238l-.66 3.957c-.221 1.337-1.366 2.307-2.722 2.307z" />
</svg>