<svg id="Layer_1" enable-background="new 0 0 512.009 512.009" height="512" viewBox="0 0 512.009 512.009" width="512" xmlns="http://www.w3.org/2000/svg"><path d="m492.231 137.786-15.183-7.588c-5.679-14.547-22.367-45.934-63.982-59.81-28.565-9.519-102.702-34.225-179.515-9.5-35.303-28.258-62.108-29.876-115.53-23.196-12.198 1.526-16.948 7.903-18.785 12.983-8.399 23.227 31.165 33.144 36.888 72.651-24.777 20.282-54.479 51.189-70.427 83.086-37.981 75.962-27.415 141.982-20.445 168.582-24.636 18.878-39.781 47.176-45.083 84.312-1.825 12.783 11.489 22.327 22.995 16.572l72.845-36.422 56.845 28.422c9.764 4.885 21.469-1.253 22.998-12.071 5.625-39.788-2.997-71.888-41.367-88.87-8.081-3.581-17.53.074-21.106 8.155-3.577 8.08.075 17.53 8.155 21.106 14.85 6.573 22.24 16.034 23.693 32.09l-42.063-21.031c-4.504-2.252-9.807-2.252-14.311 0l-48.084 24.042c6.987-15.679 17.417-27.58 31.47-36.011 6.692-4.015 9.532-12.218 6.694-19.486-.068-.178-6.8-18.077-8.202-46.1-1.866-37.277 6.07-73.943 23.588-108.979 15.037-30.074 46.104-60.517 68.138-77.447 4-3.074 6.317-7.854 6.25-12.898-.378-28.647-13.934-49.362-25.541-63.138 41.904-3.232 53.54 4.429 76.882 23.968 4.407 3.688 10.455 4.729 15.842 2.729 69.323-25.76 137.812-2.936 167.056 6.811 36.193 12.067 44.96 42.545 45.524 44.646 1.065 4.662 4.103 8.347 8.384 10.487l21.068 10.529c3.533 1.765 2.303 7.158-1.695 7.158-21.291 0-79.302-2.468-160.543 21.085-8.466-9.074-23.647-5.432-27.062 6.52-8.191 28.669-23.726 46.944-47.134 55.224 10.303-21.892 14.519-45.089 14.519-58.828 0-8.837-7.164-16-16-16s-16 7.163-16 16c0 .425-.008.877-.023 1.349-43.267 5.917-96.497 38.163-124.917 77.241-7.757 10.666.055 25.411 12.927 25.411 4.945 0 9.822-2.285 12.953-6.591 22.388-30.783 61.185-53.917 91.702-61.952-4.314 11.826-10.758 24.03-19.955 33.229-10.046 10.046-2.929 27.313 11.313 27.313 48.883 0 85.557-21.627 104.502-64.508 72.764-23.122 134.872-23.491 135.498-23.492h28.22c9.562 0 18.548-3.721 25.304-10.477 17.165-17.165 12.666-46.324-9.3-57.306z"/></svg>