<?xml version="1.0" encoding="UTF-8"?>
<svg xmlns="http://www.w3.org/2000/svg" id="Icons" viewBox="0 0 74 74" width="512" height="512"><path d="M63,39.44a1,1,0,0,1-1-1V35.5a1,1,0,0,1,2,0v2.94A1,1,0,0,1,63,39.44Z"/><path d="M63,72H11a1,1,0,0,1-1-1V3a1,1,0,0,1,1-1H63a1,1,0,0,1,1,1V18.56a1,1,0,1,1-2,0V4H12V70H62V45.44a1,1,0,0,1,2,0V71A1,1,0,0,1,63,72Z"/><path d="M63,29.5a1,1,0,0,1-1-1V25.56a1,1,0,0,1,2,0V28.5A1,1,0,0,1,63,29.5Z"/><path d="M56,26.047H18a1,1,0,0,1,0-2H56a1,1,0,0,1,0,2Z"/><path d="M34,35.63H18a1,1,0,0,1,0-2H34a1,1,0,0,1,0,2Z"/><path d="M34,45.213H18a1,1,0,0,1,0-2H34a1,1,0,0,1,0,2Z"/><path d="M34,54.8H18a1,1,0,0,1,0-2H34a1,1,0,0,1,0,2Z"/><path d="M56,64.38H18a1,1,0,1,1,0-2H56a1,1,0,0,1,0,2Z"/><path d="M25.678,18.886h-1.1l-4.258-6.414v6.414H19.3V10.758h1.1l4.258,6.415V10.758h1.025Z"/><path d="M25.678,19.011h-1.1a.126.126,0,0,1-.1-.055l-4.029-6.07v6a.125.125,0,0,1-.125.125H19.3a.125.125,0,0,1-.125-.125V10.758a.125.125,0,0,1,.125-.125h1.1a.124.124,0,0,1,.1.056l4.029,6.07v-6a.125.125,0,0,1,.125-.125h1.025a.125.125,0,0,1,.125.125v8.128A.125.125,0,0,1,25.678,19.011Zm-1.036-.25h.911V10.883h-.775v6.29a.125.125,0,0,1-.089.12.126.126,0,0,1-.14-.05l-4.221-6.36h-.906v7.878h.77V12.472a.125.125,0,0,1,.089-.12.127.127,0,0,1,.14.05Z"/><path d="M34.5,18.886h-6.06V10.758h5.872v.965h-4.8v2.484H34v.965H29.519v2.75H34.5Z"/><path d="M34.5,19.011h-6.06a.126.126,0,0,1-.125-.125V10.758a.126.126,0,0,1,.125-.125h5.871a.125.125,0,0,1,.125.125v.965a.125.125,0,0,1-.125.125h-4.67v2.234H34a.125.125,0,0,1,.125.125v.965A.125.125,0,0,1,34,15.3h-4.36v2.5H34.5a.125.125,0,0,1,.125.125v.964A.125.125,0,0,1,34.5,19.011Zm-5.935-.25h5.81v-.714H29.519a.125.125,0,0,1-.125-.125v-2.75a.125.125,0,0,1,.125-.125h4.36v-.715h-4.36a.125.125,0,0,1-.125-.125V11.723a.125.125,0,0,1,.125-.125h4.67v-.715H28.568Z"/><path d="M46.66,10.758l-2.251,8.128H43.378l-1.952-7.063-1.957,7.063H38.438l-2.246-8.128h1.131l1.625,6.62,1.83-6.62h1.291l1.83,6.62,1.625-6.62Z"/><path d="M44.409,19.011H43.378a.125.125,0,0,1-.121-.092l-1.831-6.627L39.59,18.919a.125.125,0,0,1-.121.092H38.438a.126.126,0,0,1-.121-.092l-2.245-8.127a.125.125,0,0,1,.021-.109.123.123,0,0,1,.1-.05h1.131a.125.125,0,0,1,.122.1l1.51,6.154,1.7-6.158a.125.125,0,0,1,.12-.092h1.292a.126.126,0,0,1,.121.092l1.7,6.158,1.51-6.154a.125.125,0,0,1,.121-.1H46.66a.125.125,0,0,1,.1.05.128.128,0,0,1,.021.109L44.53,18.919A.125.125,0,0,1,44.409,19.011Zm-.936-.25h.841L46.5,10.883h-.874l-1.6,6.525a.126.126,0,0,1-.12.095h0a.125.125,0,0,1-.121-.091l-1.8-6.529h-1.1l-1.8,6.529a.124.124,0,0,1-.12.091h0a.126.126,0,0,1-.12-.095l-1.6-6.525h-.869l2.177,7.878h.841l1.932-6.971a.124.124,0,0,1,.12-.092h0a.125.125,0,0,1,.121.092Z"/><path d="M51.693,19.025a3.723,3.723,0,0,1-2.57-.771,2.689,2.689,0,0,1-.9-1.979h1.037a1.689,1.689,0,0,0,.757,1.345,2.934,2.934,0,0,0,1.627.435,2.562,2.562,0,0,0,1.456-.372,1.158,1.158,0,0,0,.551-1.009,1.028,1.028,0,0,0-.571-.976,8.25,8.25,0,0,0-1.965-.6,4.545,4.545,0,0,1-2-.823,1.765,1.765,0,0,1-.607-1.4,1.981,1.981,0,0,1,.79-1.619,3.258,3.258,0,0,1,2.1-.632,3.579,3.579,0,0,1,2.217.637,2.257,2.257,0,0,1,.893,1.8H53.461q-.16-1.474-2.018-1.474a2.44,2.44,0,0,0-1.392.338,1.04,1.04,0,0,0-.493.9.849.849,0,0,0,.4.765,5.013,5.013,0,0,0,1.481.493,14.018,14.018,0,0,1,1.721.472,2.763,2.763,0,0,1,1.093.723,1.861,1.861,0,0,1,.454,1.317,2.17,2.17,0,0,1-.834,1.741A3.3,3.3,0,0,1,51.693,19.025Z"/><path d="M51.692,19.15a3.855,3.855,0,0,1-2.653-.8,2.819,2.819,0,0,1-.936-2.068.125.125,0,0,1,.125-.129h1.036a.125.125,0,0,1,.125.114,1.553,1.553,0,0,0,.7,1.251,2.83,2.83,0,0,0,1.559.415,2.457,2.457,0,0,0,1.386-.35,1.032,1.032,0,0,0,.5-.906.9.9,0,0,0-.505-.865,8.129,8.129,0,0,0-1.932-.59,4.681,4.681,0,0,1-2.058-.851,1.893,1.893,0,0,1-.65-1.5,2.113,2.113,0,0,1,.837-1.717A3.4,3.4,0,0,1,51.4,10.5a3.721,3.721,0,0,1,2.293.663,2.383,2.383,0,0,1,.942,1.9.126.126,0,0,1-.034.092.13.13,0,0,1-.091.038H53.461a.125.125,0,0,1-.124-.111c-.1-.918-.72-1.364-1.894-1.364a2.335,2.335,0,0,0-1.321.317.915.915,0,0,0-.439.8.727.727,0,0,0,.339.66,5,5,0,0,0,1.439.477,13.958,13.958,0,0,1,1.738.476,2.893,2.893,0,0,1,1.141.755,1.989,1.989,0,0,1,.488,1.4,2.3,2.3,0,0,1-.879,1.837A3.431,3.431,0,0,1,51.692,19.15ZM48.36,16.4a2.557,2.557,0,0,0,.847,1.762,3.627,3.627,0,0,0,2.485.738,3.193,3.193,0,0,0,2.1-.664,2.034,2.034,0,0,0,.789-1.645,1.749,1.749,0,0,0-.421-1.232,2.643,2.643,0,0,0-1.044-.691,13.718,13.718,0,0,0-1.7-.466,5.083,5.083,0,0,1-1.521-.511.97.97,0,0,1-.454-.87,1.161,1.161,0,0,1,.547-1,2.577,2.577,0,0,1,1.463-.361c1.26,0,1.975.5,2.128,1.475h.8a2.087,2.087,0,0,0-.835-1.577,3.479,3.479,0,0,0-2.142-.612,3.154,3.154,0,0,0-2.021.605,1.847,1.847,0,0,0-.743,1.521,1.632,1.632,0,0,0,.564,1.308,4.447,4.447,0,0,0,1.946.8,8.362,8.362,0,0,1,2,.613,1.15,1.15,0,0,1,.637,1.086,1.281,1.281,0,0,1-.607,1.113,2.7,2.7,0,0,1-1.525.393,3.08,3.08,0,0,1-1.7-.455,1.784,1.784,0,0,1-.8-1.325Z"/><path d="M56,54.427H40a1,1,0,0,1-1-1V35a1,1,0,0,1,1-1H56a1,1,0,0,1,1,1V53.427A1,1,0,0,1,56,54.427Zm-15-2H55V36H41Z"/></svg>
