<svg xmlns="http://www.w3.org/2000/svg" xmlns:xlink="http://www.w3.org/1999/xlink" xml:space="preserve" width="512px" height="200px" version="1.1" style="shape-rendering:geometricPrecision; text-rendering:geometricPrecision; image-rendering:optimizeQuality; fill-rule:evenodd; clip-rule:evenodd" viewBox="0 0 512 200" enable-background="new 0 0 512 512" data-name="Layer 1">
 <defs>
  <style type="text/css">
   <![CDATA[
    .fil0 {fill:#FEFEFE}
    .fil1 {fill:gray;fill-rule:nonzero}
   ]]>
  </style>
 </defs>
 <g id="Layer_x0020_1">
  <metadata id="CorelCorpID_0Corel-Layer"/>
  <path class="fil0" d="M122.79 22.01l0 22.98 0 14.62 0 14.45 0 0.59c0,5.81 -1.45,9.63 -4.35,11.48 -2.11,1.32 -6.07,1.98 -11.87,1.98l-17.12 0 -2.98 0 -3.53 0 -0.27 0 -29.56 0c-16.11,0 -29.29,-13.18 -29.29,-29.28l0 -7.54c0,-16.11 13.18,-29.28 29.29,-29.28l33.36 0 2.97 0 -11.55 0 0.26 0 23.75 0c-0.78,-2.92 -1.86,-5.29 -3.24,-7.13 -3.83,-4.88 -10.5,-7.32 -19.99,-7.32l-31.31 0 0 0 -0.1 0 0 0c-23.14,0 -42.08,18.94 -42.08,42.08l0 10.83c0,23.15 18.94,42.09 42.08,42.09l0 0c1.44,0 2.86,-0.07 4.26,-0.22 1.47,0.15 3.03,0.22 4.67,0.22 49.9,0 16.71,0 66.6,0 9.57,0 16.23,-2.44 19.96,-7.32 3.33,-4.23 4.98,-11.28 4.98,-21.18l0 -66.5 -17.47 0c-4.1,0 -7.47,5.03 -7.47,11.18l0 3.27zm350.99 37.6l-40.15 0c-5.81,0 -9.77,-0.66 -11.88,-1.98 -3.03,-1.85 -4.55,-5.67 -4.55,-11.48l0 -11.87c0,-5.15 1.52,-8.58 4.55,-10.3 2.24,-1.31 6.2,-1.97 11.88,-1.97l17.11 0 1.29 0 6.86 0c16.11,0 29.29,13.17 29.29,29.28l0 7.54c0,16.1 -13.18,29.28 -29.29,29.28l-6.86 0 -1.29 0 0 -0.21c-1.49,0.14 -3.17,0.21 -5.04,0.21l-39.09 0c-6.15,0 -11.18,3.36 -11.18,7.47l0 6.98 56.6 0 4 0 5.9 0c0.5,0 1,-0.01 1.48,-0.02 0.44,0.01 0.88,0.02 1.33,0.02l0 0c23.14,0 42.08,-18.94 42.08,-42.09l0 -10.83c0,-22.35 -17.66,-40.78 -39.72,-42.01l0 -0.07 -2.36 0 -0.1 0 -12.61 0 -34.83 0c-9.5,0 -16.16,2.44 -19.99,7.32 -3.17,4.22 -4.75,11.28 -4.75,21.18l0 9.5c0,9.89 1.58,16.95 4.75,21.18 3.83,4.88 10.49,7.32 19.99,7.32l56.58 0 0 -14.45zm-228.65 14.45l11.88 0c-5.16,8.41 -14.45,14.05 -24.98,14.05l-6.86 0 -1.29 0 0 -0.21c-1.49,0.14 -3.17,0.21 -5.05,0.21l-39.09 0c-6.15,0 -11.18,3.36 -11.18,7.47l0 6.98 56.61 0 3.77 0 0.23 0 5.89 0c0.51,0 1,-0.01 1.49,-0.02 0.44,0.01 0.88,0.02 1.32,0.02l0 0c18.4,0 34.14,-11.97 39.82,-28.5l9.49 0 0.42 0 23.42 0 50.12 0c5.66,-1 9.83,-3.24 12.5,-6.73 3.33,-4.22 4.98,-11.28 4.98,-21.18l0 -38.59 -24.94 0 0 14.45 0 23.55 0 0.59c0,5.81 -1.45,9.63 -4.35,11.48 -2.11,1.32 -6.08,1.98 -11.88,1.98l-10.37 0c0.95,-3.67 1.42,-8.16 1.42,-13.46l0 -38.59 -24.94 0 0 14.45 0 23.55 0 0.59c0,5.81 -1.45,9.63 -4.35,11.48 -1.98,1.24 -5.58,1.9 -10.8,1.97l0 0.01 -0.81 0 -0.42 0 -7.23 0 -18.65 0 -16.17 0 -7.5 0 -4.24 0 -26.63 0c-5.8,0 -9.76,-0.66 -11.87,-1.98 -3.04,-1.85 -4.56,-5.67 -4.56,-11.48l0 -11.87c0,-5.15 1.52,-8.58 4.56,-10.3 2.24,-1.31 6.2,-1.97 11.87,-1.97l17.12 0 1.29 0 6.86 0c16.1,0 29.28,13.17 29.28,29.28l0 0.59 18.64 0 0 -2.24c0,-22.35 -17.66,-40.78 -39.71,-42.01l0 -0.07 -2.37 0 0 0 -0.1 0 -12.6 0 -34.84 0c-9.5,0 -16.16,2.44 -19.99,7.32 -3.16,4.22 -4.75,11.28 -4.75,21.18l0 9.5c0,9.89 1.59,16.95 4.75,21.18 3.83,4.88 10.5,7.32 19.99,7.32l43.06 0 11.74 0zm86.13 28.5l0.01 0.24 0 9.22 -10.87 0c-6.14,0 -11.18,-3.36 -11.18,-7.46l0 -2 -20.13 0c-6.14,0 -11.18,-3.36 -11.18,-7.46l0 -6.99 42.18 0c6.15,0 11.18,3.36 11.18,7.47l0 6.98 -0.01 0zm11.51 -14.45l33.23 0c6.15,0 11.18,3.36 11.18,7.47l0 6.98 -33.23 0c-6.14,0 -11.18,-3.36 -11.18,-7.46l0 -6.99zm-286.59 -47.05l16.55 0c7.77,0 14.13,6.35 14.13,14.12l0 13.23 -16.55 0c-7.78,0 -14.14,-6.36 -14.13,-14.13l0 -13.22z"/>
  <path class="fil1" d="M40.97 184.89l-16.3 0c-1.65,0 -3.28,-0.23 -4.9,-0.68 -3.13,-0.95 -5.61,-3.13 -7.44,-6.54 -1.65,-3.08 -2.47,-6.68 -2.47,-10.79 0,-3.96 0.73,-7.48 2.21,-10.53 1.62,-3.37 3.92,-5.67 6.91,-6.9 2.32,-0.95 4.69,-1.42 7.12,-1.42l14.76 0 0 7.07 -15.34 0c-2.5,0 -4.31,1.35 -5.43,4.06 -0.88,2.11 -1.32,4.87 -1.32,8.28 0,2.88 0.56,5.32 1.68,7.33 1.3,2.35 3.13,3.53 5.49,3.53l15.03 0 0 6.59zm41.24 -12.48c0,4.84 -1.94,8.27 -5.81,10.27 -2.88,1.47 -7.01,2.21 -12.39,2.21 -5.24,0 -9.44,-0.86 -12.6,-2.58 -4.04,-2.17 -6.06,-5.6 -6.06,-10.27l0 -24.01 9.33 0 0 22.84c0,2.88 1.04,4.98 3.11,6.27 1.51,0.95 3.39,1.42 5.64,1.42 3.83,0 6.47,-0.75 7.91,-2.26 1.23,-1.3 1.85,-3.21 1.85,-5.74l0 -22.53 9.02 0 0 24.38zm44.24 1.01c0,3.23 -1.07,5.94 -3.22,8.16 -2.14,2.2 -4.87,3.31 -8.17,3.31l-26.1 0 0 -6.59 21.51 0c1.44,0 2.66,-0.34 3.64,-1.01 1.12,-0.78 1.69,-1.84 1.69,-3.18 0,-3.15 -2.22,-4.72 -6.65,-4.72l-10.86 0c-3.13,0 -5.87,-0.97 -8.23,-2.9 -2.35,-1.93 -3.53,-4.38 -3.53,-7.36 0,-3.3 1.15,-5.97 3.45,-8.02 2.31,-2.05 5.34,-3.08 9.1,-3.08l24.94 0 0 6.33 -21.99 0c-0.98,0 -1.97,0.41 -2.98,1.23 -1,0.82 -1.5,1.79 -1.5,2.91 0,1.25 0.49,2.31 1.45,3.17 0.97,0.85 2.14,1.28 3.51,1.28l11.97 0c3.73,0 6.65,0.96 8.78,2.87 2.13,1.91 3.19,4.45 3.19,7.6zm37.18 -19.12l-13.77 0 0 30.7 -8.54 0 0 -30.7 -13.55 0 0 -6.27 35.86 0 0 6.27zm42.29 12.11c0,7.18 -1.99,12.32 -5.96,15.41 -3.23,2.51 -7.94,3.76 -14.13,3.76 -6.86,0 -11.92,-1.45 -15.19,-4.34 -3.59,-3.16 -5.38,-8.25 -5.38,-15.25 0,-5.74 1.6,-10.22 4.8,-13.42 3.48,-3.49 8.68,-5.23 15.61,-5.23 7.63,0 13.01,1.67 16.14,5.02 2.74,2.96 4.11,7.64 4.11,14.05zm-9.39 -0.21c0,-3.63 -0.86,-6.53 -2.58,-8.67 -1.93,-2.4 -4.8,-3.59 -8.6,-3.59 -3.72,0 -6.54,1.28 -8.43,3.85 -1.59,2.15 -2.38,4.95 -2.38,8.41 0,3.98 0.64,6.92 1.9,8.82 1.76,2.65 5.01,3.96 9.76,3.96 4.01,0 6.82,-1.28 8.43,-3.85 1.27,-2.01 1.9,-4.99 1.9,-8.93zm59.96 18.69l-7.96 0 0 -28.16 -10.44 28.16 -9.5 0 -10.75 -28.79 0 28.79 -7.7 0 0 -36.86 12.34 0 10.81 29.16 10.39 -29.16 12.81 0 0 36.86zm38.92 0l-17.98 0c-2.78,0 -5.45,-0.63 -8.02,-1.9 -2.78,-1.36 -4.89,-3.54 -6.35,-6.53 -1.46,-2.98 -2.19,-6.26 -2.19,-9.84 0,-3.54 0.7,-6.76 2.11,-9.64 1.55,-3.12 3.69,-5.41 6.43,-6.84 1.51,-0.77 2.96,-1.32 4.35,-1.64 1.39,-0.31 2.98,-0.47 4.77,-0.47l16.67 0 0 6.59 -15.4 0c-1.37,0 -2.52,0.19 -3.45,0.55 -0.94,0.36 -1.86,1.01 -2.77,1.94 -0.92,0.93 -1.55,1.83 -1.9,2.71 -0.35,0.88 -0.53,1.98 -0.53,3.29l24.26 0 0 6.59 -24.26 0c0,1.2 0.16,2.24 0.48,3.14 0.31,0.9 0.89,1.82 1.72,2.77 0.82,0.95 1.7,1.67 2.59,2.16 0.91,0.49 1.97,0.74 3.21,0.74l16.26 0 0 6.38zm43.19 0l-10.42 0 -9.59 -14.4 -9.94 0 0 14.4 -8.76 0 0 -36.86 27 0c3.06,0 5.59,1.19 7.6,3.55 2,2.36 3,5.17 3,8.39 0,2.56 -0.86,4.73 -2.58,6.52 -1.73,1.79 -3.91,2.91 -6.54,3.37l10.23 15.03zm-11.76 -25.29c0,-1.71 -0.64,-3.03 -1.93,-3.96 -1.28,-0.92 -3.01,-1.39 -5.19,-1.39l-11.07 0 0 10.29 11.33 0c1.66,0 3.13,-0.37 4.43,-1.1 1.62,-0.92 2.43,-2.19 2.43,-3.84zm64.33 25.29l-16.29 0c-1.65,0 -3.29,-0.23 -4.9,-0.68 -3.13,-0.95 -5.61,-3.13 -7.44,-6.54 -1.65,-3.08 -2.48,-6.68 -2.48,-10.79 0,-3.96 0.74,-7.48 2.22,-10.53 1.61,-3.37 3.92,-5.67 6.9,-6.9 2.33,-0.95 4.7,-1.42 7.12,-1.42l14.77 0 0 7.07 -15.35 0c-2.49,0 -4.3,1.35 -5.43,4.06 -0.88,2.11 -1.32,4.87 -1.32,8.28 0,2.88 0.57,5.32 1.69,7.33 1.3,2.35 3.13,3.53 5.49,3.53l15.02 0 0 6.59zm34.86 0l-13.34 0c-3.9,0 -7.03,-0.44 -9.39,-1.32 -2.99,-1.12 -5.13,-3.05 -6.43,-5.79 -0.49,-1.05 -0.84,-2.07 -1.03,-3.02 -0.19,-0.97 -0.29,-2.09 -0.29,-3.35l0 -23.38 9.49 0 0 23.05c0,1.06 0.13,1.98 0.37,2.77 0.25,0.79 0.69,1.57 1.32,2.35 0.88,1.11 1.9,1.85 3.06,2.2 1.16,0.36 2.64,0.53 4.43,0.53l11.81 0 0 5.96zm41.4 -12.48c0,4.84 -1.94,8.27 -5.8,10.27 -2.89,1.47 -7.02,2.21 -12.4,2.21 -5.23,0 -9.43,-0.86 -12.6,-2.58 -4.04,-2.17 -6.06,-5.6 -6.06,-10.27l0 -24.01 9.33 0 0 22.84c0,2.88 1.04,4.98 3.11,6.27 1.51,0.95 3.39,1.42 5.64,1.42 3.84,0 6.47,-0.75 7.91,-2.26 1.24,-1.3 1.85,-3.21 1.85,-5.74l0 -22.53 9.02 0 0 24.38zm39.39 2.51c0,2.78 -0.98,5.14 -2.95,7.07 -1.97,1.93 -4.34,2.9 -7.12,2.9l-23.94 0 0 -36.86 22.99 0c2.71,0 5.05,0.79 7.04,2.37 1.98,1.58 3.12,3.66 3.4,6.23 0.04,0.21 0.05,0.42 0.05,0.63 0,0.21 0,0.42 0,0.63 0,1.97 -0.47,3.7 -1.42,5.19 -0.95,1.5 -2.37,2.67 -4.27,3.51 1.93,0.7 3.45,1.78 4.56,3.22 1.11,1.44 1.66,3.15 1.66,5.11zm-10.02 -15.29c0,-1.26 -0.4,-2.36 -1.19,-3.27 -0.79,-0.91 -1.8,-1.37 -3.03,-1.37l-11.65 0 0 8.81 12.13 0.05c1.09,0 1.98,-0.41 2.69,-1.24 0.7,-0.83 1.05,-1.82 1.05,-2.98zm0.48 14.92c0,-1.23 -0.39,-2.29 -1.16,-3.19 -0.78,-0.89 -1.76,-1.34 -2.96,-1.34l-12.44 0 0 8.6 12.71 0c1.12,0 2.04,-0.4 2.76,-1.19 0.72,-0.79 1.09,-1.75 1.09,-2.88z"/>
 </g>
</svg>