<svg xmlns="http://www.w3.org/2000/svg" xmlns:xlink="http://www.w3.org/1999/xlink" xml:space="preserve" width="512px" height="512px" version="1.1" style="shape-rendering:geometricPrecision; text-rendering:geometricPrecision; image-rendering:optimizeQuality; fill-rule:evenodd; clip-rule:evenodd" viewBox="0 0 512 512" enable-background="new 0 0 512 512" data-name="Layer 1">
 <defs>
  <style type="text/css">
   <![CDATA[
    .fil0 {fill:#606062}
    .fil1 {fill:#373435}
   ]]>
  </style>
 </defs>
 <g id="Layer_x0020_1">
  <metadata id="CorelCorpID_0Corel-Layer"/>
  <circle class="fil0" cx="256" cy="256" r="256"/>
  <path class="fil1" d="M201.7 317.66c0,-7.43 -5.22,-13.42 -8.58,-18.06l-11.06 -14.74c-3.33,-4.39 -6.88,-10.74 -9.9,-15.86 -18.6,-31.45 -26.08,-64.92 -23.63,-104.73 1.99,-32.33 19.08,-65.1 47.19,-82.47 52.07,-32.16 134.88,-19.01 160.12,46.69 17.89,46.58 8.74,98.98 -15.73,141.53 -9.12,15.85 -29.58,32.83 -28.81,52.12 0.34,8.53 4.38,12 10.35,15.84 13.28,8.56 50.2,19.39 74,33.64 9.62,5.76 23.16,13.75 31.83,21.68 17.72,16.19 19.6,26.57 22.27,30.03 38.79,-44.88 62.25,-103.36 62.25,-167.33 0,-141.38 -114.62,-256 -256,-256 -141.39,0 -256,114.62 -256,256 0,64.18 23.62,122.85 62.65,167.78 1.67,-3.25 2.68,-6.15 4.75,-9.45 2.22,-3.53 4.12,-5.95 6.62,-8.84 18.93,-21.98 65.14,-46.57 93.07,-59.06 17.47,-7.81 34.61,-9.68 34.61,-28.77z"/>
 </g>
</svg>